# xmcd
#
# Track frame offsets:
#	150
#	18787
#	36685
#	59297
#	82587
#	102292
#	120990
#	140210
#	168830
#	190357
#	209175
#	236160
#	257317
#
# Disc length: 3591 seconds
#
# Revision: 1
# Processed by: cddbd v1.5PL3 Copyright (c) Steve Scherf et al.
# Submitted via: audiograbber 1.82.02
#
DISCID=b10e050d
DTITLE=Litlle Jonny and the Giants - King of Clubs
DYEAR=2001
DGENRE=Blues
TTITLE0=Standin' at the Crossroads
TTITLE1=One Good Woman
TTITLE2=Everytime I Hear Your Name
TTITLE3=It's Rainin' Inside
TTITLE4=She's a Hit
TTITLE5=Teenage Orangutan
TTITLE6=Keep What I Got
TTITLE7=Orphan's Blues
TTITLE8=What Have I Done (Cuckoo)
TTITLE9=You Don't Have to Go
TTITLE10=Hip Flip
TTITLE11=Nobody's Special Friend
TTITLE12=I'm Hot for You
EXTD=
EXTT0=
EXTT1=
EXTT2=
EXTT3=
EXTT4=
EXTT5=
EXTT6=
EXTT7=
EXTT8=
EXTT9=
EXTT10=
EXTT11=
EXTT12=
PLAYORDER=
